<?xml version="1.0" standalone="no"?>
<!DOCTYPE svg PUBLIC "-//W3C//DTD SVG 20010904//EN"
 "http://www.w3.org/TR/2001/REC-SVG-20010904/DTD/svg10.dtd">
<svg version="1.0" xmlns="http://www.w3.org/2000/svg"
 width="78.000000pt" height="78.000000pt" viewBox="0 0 78.000000 78.000000"
 preserveAspectRatio="xMidYMid meet">
<metadata>
Created by potrace 1.11, written by Peter Selinger 2001-2013
</metadata>
<g transform="translate(0.000000,78.000000) scale(0.100000,-0.100000)"
fill="#000000" stroke="none">
<path d="M139 665 c0 -3 -1 -20 -2 -37 -1 -29 3 -33 26 -36 l27 -3 -2 -212 -3
-211 -25 -6 c-19 -4 -26 -13 -28 -37 -3 -29 0 -32 30 -38 18 -3 67 -5 108 -3
l75 3 3 37 c3 35 1 38 -22 38 -24 0 -26 4 -26 41 0 33 8 51 36 85 19 24 39 44
43 44 7 0 101 -150 101 -162 0 -4 -10 -8 -22 -10 -18 -2 -24 -11 -26 -35 -3
-29 0 -32 30 -38 18 -3 71 -5 118 -3 l85 3 3 37 c3 36 1 38 -25 38 -25 1 -37
15 -109 128 l-81 127 75 88 c55 64 81 87 98 87 21 0 24 5 24 40 l0 40 -105 0
-105 0 0 -40 c0 -36 2 -40 26 -40 23 0 17 -10 -68 -107 l-93 -106 -3 93 c-3
109 -1 117 30 122 19 2 23 9 23 38 l0 35 -107 3 c-60 1 -108 0 -109 -3z"/>
</g>
</svg>
