<?xml version="1.0" standalone="no"?>
<!DOCTYPE svg PUBLIC "-//W3C//DTD SVG 20010904//EN"
 "http://www.w3.org/TR/2001/REC-SVG-20010904/DTD/svg10.dtd">
<svg version="1.0" xmlns="http://www.w3.org/2000/svg"
 width="95.000000pt" height="95.000000pt" viewBox="0 0 95.000000 95.000000"
 preserveAspectRatio="xMidYMid meet">
<metadata>
Created by potrace 1.11, written by Peter Selinger 2001-2013
</metadata>
<g transform="translate(0.000000,95.000000) scale(0.100000,-0.100000)"
fill="#000000" stroke="none">
<path d="M0 475 l0 -475 475 0 475 0 0 475 0 475 -475 0 -475 0 0 -475z m422
169 l3 -105 78 105 79 106 64 0 c35 0 64 -3 64 -6 0 -3 -39 -54 -86 -114 -54
-69 -83 -114 -78 -122 4 -7 40 -66 81 -131 100 -159 98 -149 22 -145 l-63 3
-60 98 -59 97 -23 -21 c-20 -18 -24 -34 -26 -98 l-3 -76 -52 -3 -53 -3 0 260
0 261 55 0 54 0 3 -106z"/>
</g>
</svg>
